<?xml version="1.0" encoding="UTF-8" standalone="no"?>
<!-- Created with Inkscape (http://www.inkscape.org/) -->
<svg
   xmlns:dc="http://purl.org/dc/elements/1.1/"
   xmlns:cc="http://web.resource.org/cc/"
   xmlns:rdf="http://www.w3.org/1999/02/22-rdf-syntax-ns#"
   xmlns:svg="http://www.w3.org/2000/svg"
   xmlns="http://www.w3.org/2000/svg"
   xmlns:sodipodi="http://inkscape.sourceforge.net/DTD/sodipodi-0.dtd"
   xmlns:inkscape="http://www.inkscape.org/namespaces/inkscape"
   width="841.88975pt"
   height="595.27559pt"
   id="svg2"
   sodipodi:version="0.32"
   inkscape:version="0.42.2"
   sodipodi:docbase="/home/oever/tmp/svn/libs/archivereader/doc/images"
   sodipodi:docname="streamindexer.svg">
  <defs
     id="defs4" />
  <sodipodi:namedview
     id="base"
     pagecolor="#ffffff"
     bordercolor="#666666"
     borderopacity="1.0"
     inkscape:pageopacity="0.0"
     inkscape:pageshadow="2"
     inkscape:zoom="0.66658202"
     inkscape:cx="526.18109"
     inkscape:cy="372.04724"
     inkscape:document-units="px"
     inkscape:current-layer="layer1"
     inkscape:window-width="997"
     inkscape:window-height="672"
     inkscape:window-x="47"
     inkscape:window-y="0" />
  <metadata
     id="metadata7">
    <rdf:RDF>
      <cc:Work
         rdf:about="">
        <dc:format>image/svg+xml</dc:format>
        <dc:type
           rdf:resource="http://purl.org/dc/dcmitype/StillImage" />
      </cc:Work>
    </rdf:RDF>
  </metadata>
  <g
     inkscape:label="Layer 1"
     inkscape:groupmode="layer"
     id="layer1">
    <path
       style="fill:#000000;fill-opacity:1.0000000;fill-rule:nonzero;stroke:none;stroke-width:1.0000000px;stroke-linecap:butt;stroke-linejoin:miter;stroke-opacity:1.0000000"
       id="path1310"
       d="M 212.58963,361.45514 C 217.83391,362.43558 223.12068,362.87396 228.48814,363.04558 L 211.95463,375.00835 C 206.52560,374.78340 201.21514,373.83492 195.82108,373.63820 L 212.58963,361.45514 z " />
    <path
       style="fill:#000000;fill-opacity:1.0000000;fill-rule:nonzero;stroke:none;stroke-width:1.0000000px;stroke-linecap:butt;stroke-linejoin:miter;stroke-opacity:1.0000000"
       id="path1312"
       d="M 271.09706,364.45552 C 273.09061,365.71615 275.43533,365.41204 277.69020,365.57534 L 261.20644,377.61648 C 258.94182,377.24620 256.51213,376.90468 254.32851,376.63858 L 271.09706,364.45552 z " />
    <path
       style="fill:#000000;fill-opacity:1.0000000;fill-rule:nonzero;stroke:none;stroke-width:1.0000000px;stroke-linecap:butt;stroke-linejoin:miter;stroke-opacity:1.0000000"
       id="path1314"
       d="M 305.60144,364.45552 C 309.02269,364.55561 312.44683,364.54447 315.86937,364.56474 L 299.40150,376.52936 C 295.87870,376.54989 292.35452,376.54067 288.83289,376.63858 L 305.60144,364.45552 z " />
    <path
       style="fill:#000000;fill-opacity:1.0000000;fill-rule:nonzero;stroke:none;stroke-width:1.0000000px;stroke-linecap:butt;stroke-linejoin:miter;stroke-opacity:1.0000000"
       id="path1316"
       d="M 352.10735,364.45552 C 356.89770,364.58045 361.69156,364.54714 366.48337,364.54938 L 349.97319,376.54472 C 345.09522,376.54700 340.21544,376.51600 335.33879,376.63858 L 352.10735,364.45552 z " />
    <path
       style="fill:#000000;fill-opacity:1.0000000;fill-rule:nonzero;stroke:none;stroke-width:1.0000000px;stroke-linecap:butt;stroke-linejoin:miter;stroke-opacity:1.0000000"
       id="path1318"
       d="M 419.61592,362.95533 C 425.68439,363.18891 431.76056,363.10513 437.83220,363.07603 L 421.39590,375.01770 C 415.21337,374.98766 409.02707,374.91141 402.84737,375.13839 L 419.61592,362.95533 z " />
    <path
       style="fill:#000000;fill-opacity:1.0000000;fill-rule:nonzero;stroke:none;stroke-width:1.0000000px;stroke-linecap:butt;stroke-linejoin:miter;stroke-opacity:1.0000000"
       id="path1320"
       d="M 475.28499,368.96875 C 479.68626,369.14294 484.09211,369.11896 488.49585,369.11393 L 472.16179,380.98132 C 467.62476,380.97612 463.08607,380.95851 458.55128,381.12650 L 475.28499,368.96875 z " />
    <path
       style="fill:#000000;fill-opacity:1.0000000;fill-rule:nonzero;stroke:none;stroke-width:1.0000000px;stroke-linecap:butt;stroke-linejoin:miter;stroke-opacity:1.0000000"
       id="path1322"
       d="M 493.17685,378.83071 C 496.55729,369.25483 507.85209,370.80972 514.90517,367.10955 L 498.73721,379.67476 C 503.31043,376.82908 507.50503,373.34028 512.30968,370.90563 L 493.17685,378.83071 z " />
    <path
       style="fill:#000000;fill-opacity:1.0000000;fill-rule:nonzero;stroke:none;stroke-width:1.0000000px;stroke-linecap:butt;stroke-linejoin:miter;stroke-opacity:1.0000000"
       id="path1324"
       d="M 557.63344,367.45590 C 559.36872,367.98390 561.23689,368.17479 563.01843,368.57864 L 546.30549,380.32352 C 544.49721,380.05386 542.70838,379.44955 540.86489,379.63896 L 557.63344,367.45590 z " />
    <path
       style="fill:#000000;fill-opacity:1.0000000;fill-rule:nonzero;stroke:none;stroke-width:1.0000000px;stroke-linecap:butt;stroke-linejoin:miter;stroke-opacity:1.0000000"
       id="path1334"
       d="M 59.570201,296.94695 C 69.752058,298.21514 80.004641,298.57728 90.289805,298.66752 C 101.29920,298.58640 112.30808,298.59884 123.31760,298.58762 C 131.28880,298.52267 139.26006,298.56230 147.23134,298.54990 C 154.61720,301.71871 153.59410,310.38037 154.30326,317.71714 C 154.67986,328.11660 154.51997,338.52813 154.54465,348.93315 C 154.53897,357.84906 155.88853,366.63625 156.07713,375.55732 C 156.13863,382.75554 156.11344,389.95425 156.11173,397.15268 C 156.13136,404.13064 156.12883,411.11285 156.01172,418.08554 C 149.31721,431.55739 132.44226,434.84435 118.77928,434.99286 C 107.73063,434.73792 96.794083,434.98830 85.818231,436.18767 C 78.566102,436.72567 71.283468,436.56419 64.016558,436.55578 C 56.291762,436.63189 49.238599,437.66693 43.107387,433.54810 C 41.122261,426.80347 41.865288,419.51365 41.931621,412.51942 C 42.159280,404.18857 42.026965,395.96108 40.893222,387.71011 C 40.216272,380.64672 40.402077,373.53425 40.409731,366.44677 C 40.399264,359.03446 40.446148,351.62253 40.428646,344.21029 C 40.409305,337.12064 40.413338,330.03095 40.413408,322.94128 C 40.413474,320.44166 40.413479,317.94204 40.413508,315.44242 L 58.599064,306.17641 C 58.599093,308.67600 58.599098,311.17559 58.599164,313.67518 C 58.599233,320.77001 58.603232,327.86486 58.583978,334.95967 C 58.566630,342.36731 58.616424,349.77464 58.596306,357.18235 C 58.588836,364.20543 58.426229,371.24539 58.945554,378.25378 C 59.991379,386.58454 60.371887,394.87656 60.065647,403.28577 C 60.077038,409.89772 59.493013,416.70308 60.804666,423.18195 C 66.772202,424.89004 73.827211,424.80768 80.530404,424.56009 C 87.731717,424.56716 94.950812,424.71821 102.13272,424.09593 C 113.10691,422.98184 124.07467,423.03598 135.10111,423.09069 C 140.32675,422.89099 155.03821,417.67568 150.54988,420.35935 C 124.91730,435.68564 131.49856,432.36912 137.66671,427.12286 C 137.97825,420.26306 137.97283,413.32101 137.92571,406.41870 C 137.92721,399.21696 137.93862,392.01525 137.95481,384.81354 C 137.83085,375.86680 136.58259,367.05603 136.49609,358.12829 C 136.53290,347.77374 136.65561,337.41071 136.26729,327.06208 C 135.68434,320.69549 136.72219,312.97446 130.74567,310.52744 C 122.80895,310.51501 114.87225,310.55436 106.93560,310.49011 C 96.008129,310.48277 85.080652,310.55422 74.153840,310.37003 C 63.673206,310.23260 53.239143,309.61575 42.801649,309.13001 L 59.570201,296.94695 z " />
    <path
       style="fill:#000000;fill-opacity:1.0000000;fill-rule:nonzero;stroke:none;stroke-width:1.0000000px;stroke-linecap:butt;stroke-linejoin:miter;stroke-opacity:1.0000000"
       id="path1336"
       d="M 83.573249,323.95037 C 90.375853,324.13095 97.185286,324.04862 103.99054,324.04452 C 108.49424,324.04311 112.99795,324.04348 117.50165,324.04348 L 100.98940,336.04034 C 96.486652,336.04034 91.983907,336.04070 87.481162,336.03929 C 80.589427,336.03514 73.694064,335.95518 66.804697,336.13344 L 83.573249,323.95037 z " />
    <path
       style="fill:#000000;fill-opacity:1.0000000;fill-rule:nonzero;stroke:none;stroke-width:1.0000000px;stroke-linecap:butt;stroke-linejoin:miter;stroke-opacity:1.0000000"
       id="path1338"
       d="M 88.073820,340.45247 C 93.467558,342.35063 99.744830,342.43587 105.54166,343.24569 C 108.52073,343.54425 111.51609,343.49808 114.50478,343.55449 L 97.980075,355.53329 C 94.946146,355.45279 91.903848,355.44291 88.889246,355.03825 C 83.075110,354.12316 76.860367,353.86303 71.305269,352.63554 L 88.073820,340.45247 z " />
    <path
       style="fill:#000000;fill-opacity:1.0000000;fill-rule:nonzero;stroke:none;stroke-width:1.0000000px;stroke-linecap:butt;stroke-linejoin:miter;stroke-opacity:1.0000000"
       id="path1340"
       d="M 94.074582,365.95571 C 99.871768,366.09095 105.67266,366.04924 111.47133,366.04955 C 113.98004,366.04932 116.48875,366.04918 118.99745,366.04902 L 102.48577,378.04546 C 99.977545,378.04530 97.469322,378.04517 94.961099,378.04493 C 89.076280,378.04525 83.189489,378.00567 77.306031,378.13877 L 94.074582,365.95571 z " />
    <path
       style="fill:#000000;fill-opacity:1.0000000;fill-rule:nonzero;stroke:none;stroke-width:1.0000000px;stroke-linecap:butt;stroke-linejoin:miter;stroke-opacity:1.0000000"
       id="path1342"
       d="M 95.574773,385.45818 C 103.59223,385.65765 111.61510,385.61823 119.63463,385.58271 C 121.90417,385.56881 124.17376,385.56505 126.44333,385.55758 L 109.94837,397.54186 C 107.70187,397.53439 105.45534,397.53069 103.20886,397.51673 C 95.074991,397.48025 86.938188,397.44648 78.806221,397.64125 L 95.574773,385.45818 z " />
    <path
       style="fill:#000000;fill-opacity:1.0000000;fill-rule:nonzero;stroke:none;stroke-width:1.0000000px;stroke-linecap:butt;stroke-linejoin:miter;stroke-opacity:1.0000000"
       id="path1344"
       d="M 527.62963,365.95571 C 529.94216,366.04344 532.25728,366.02572 534.57103,366.04202 L 518.04007,378.05246 C 515.64709,378.06900 513.25296,378.05345 510.86108,378.13877 L 527.62963,365.95571 z " />
    <path
       style="fill:#000000;fill-opacity:1.0000000;fill-rule:nonzero;stroke:none;stroke-width:1.0000000px;stroke-linecap:butt;stroke-linejoin:miter;stroke-opacity:1.0000000"
       id="path1346"
       d="M 583.13668,365.95571 C 590.01076,364.01513 597.67180,364.60764 604.86741,364.58374 C 606.18264,364.57697 607.49788,364.57271 608.81312,364.56720 L 592.37697,376.50752 C 591.07970,376.50183 589.78245,376.49293 588.48517,376.49044 C 581.06713,376.53160 573.59054,376.48470 566.36813,378.13877 L 583.13668,365.95571 z " />
    <path
       style="fill:#000000;fill-opacity:1.0000000;fill-rule:nonzero;stroke:none;stroke-width:1.0000000px;stroke-linecap:butt;stroke-linejoin:miter;stroke-opacity:1.0000000"
       id="path1348"
       d="M 643.14430,362.95533 C 651.19890,363.42475 659.16999,362.92396 667.17716,362.12569 C 667.83804,361.97503 668.49893,361.82436 669.15982,361.67370 L 652.96807,373.88682 C 652.29293,373.97812 651.61779,374.06942 650.94265,374.16072 C 642.76364,374.98795 634.59299,375.10748 626.37575,375.13839 L 643.14430,362.95533 z " />
    <path
       style="fill:#000000;fill-opacity:1.0000000;fill-rule:nonzero;stroke:none;stroke-width:1.0000000px;stroke-linecap:butt;stroke-linejoin:miter;stroke-opacity:1.0000000"
       id="path1350"
       d="M 695.65097,361.45514 C 700.37846,361.59519 705.10948,361.56044 709.83860,361.55601 L 693.34772,373.53733 C 688.52599,373.53280 683.70265,373.50149 678.88242,373.63820 L 695.65097,361.45514 z " />
    <path
       style="fill:#000000;fill-opacity:1.0000000;fill-rule:nonzero;stroke:none;stroke-width:1.0000000px;stroke-linecap:butt;stroke-linejoin:miter;stroke-opacity:1.0000000"
       id="path1352"
       d="M 752.65821,365.95571 C 756.44356,366.06887 760.23212,366.04105 764.01887,366.04868 L 747.50624,378.04581 C 743.63414,378.05356 739.76048,378.02807 735.88966,378.13877 L 752.65821,365.95571 z " />
    <path
       style="fill:#000000;fill-opacity:1.0000000;fill-rule:nonzero;stroke:none;stroke-width:1.0000000px;stroke-linecap:butt;stroke-linejoin:miter;stroke-opacity:1.0000000"
       id="path1358"
       d="M 773.66087,508.47380 C 780.99264,508.62917 788.32804,508.61955 795.66145,508.62337 C 803.84426,509.11448 811.79403,508.35191 819.83907,507.24441 C 828.13718,507.70027 836.21949,506.54026 844.40921,505.79503 C 852.49778,505.09543 860.87699,506.52564 868.45707,505.16767 C 840.02666,527.45437 857.99602,506.19514 864.31231,496.37695 C 869.33801,489.41534 875.42163,483.25764 881.10792,476.82037 C 886.03557,471.31586 891.94653,466.80080 897.71101,462.21711 L 916.58899,454.17031 C 911.24083,459.21513 905.08395,463.61308 899.78910,468.85195 C 894.23796,475.38999 888.17084,481.53917 882.96675,488.31759 C 873.33742,502.23899 871.75359,510.86410 852.41814,517.84258 C 844.41801,517.84663 836.17011,517.14015 828.05095,517.87427 C 819.85264,519.03124 811.70207,519.12516 803.42654,519.42965 C 795.42059,520.75163 787.42242,520.70587 779.30461,520.50731 C 771.83392,520.51119 764.36149,520.50446 756.89232,520.65687 L 773.66087,508.47380 z " />
    <path
       style="fill:#000000;fill-opacity:1.0000000;fill-rule:nonzero;stroke:none;stroke-width:1.0000000px;stroke-linecap:butt;stroke-linejoin:miter;stroke-opacity:1.0000000"
       id="path1360"
       d="M 772.16068,505.47342 C 802.40994,490.85300 761.54504,513.56568 775.86456,504.91829 C 785.57103,499.08002 794.61382,492.37129 800.98556,482.95118 C 804.95017,476.96456 807.65469,470.28903 810.92051,463.94466 C 828.19539,449.88515 843.69403,450.75665 864.45246,450.22696 C 873.01164,450.03564 881.57316,450.05663 890.13385,450.05838 C 898.22163,450.07133 906.31057,449.85830 914.34613,450.62302 C 914.96659,450.70759 915.58705,450.79216 916.20750,450.87674 L 899.60738,462.59781 C 898.99192,462.51425 898.37646,462.43069 897.76100,462.34712 C 889.72763,461.88522 881.67318,462.05544 873.61923,462.05609 C 865.16554,462.04772 856.71157,461.97089 848.25817,462.04538 C 834.20961,462.41363 794.96839,470.29879 829.72434,455.91972 C 826.09586,461.94289 823.44508,468.69467 819.58865,474.71706 C 813.39587,484.52808 804.58085,491.66286 794.63931,497.62207 C 782.33360,505.31039 769.47360,513.99025 755.39213,517.65649 L 772.16068,505.47342 z " />
    <path
       style="fill:#000000;fill-opacity:1.0000000;fill-rule:nonzero;stroke:none;stroke-width:1.0000000px;stroke-linecap:butt;stroke-linejoin:miter;stroke-opacity:1.0000000"
       id="path1362"
       d="M 863.67230,511.47419 C 867.43831,520.17561 867.24838,530.46431 868.67490,539.88231 C 870.48273,549.58494 870.13327,559.49906 870.18703,569.32322 C 870.24553,574.92213 870.19721,580.52439 870.10294,586.11814 L 851.75660,595.15508 C 852.00772,589.66229 852.10588,584.09440 852.05211,578.55969 C 852.12907,568.80381 852.41497,558.97862 850.86797,549.31087 C 849.64390,541.23811 848.87646,530.20610 846.90375,523.65725 L 863.67230,511.47419 z " />
    <path
       style="fill:#000000;fill-opacity:1.0000000;fill-rule:nonzero;stroke:none;stroke-width:1.0000000px;stroke-linecap:butt;stroke-linejoin:miter;stroke-opacity:1.0000000"
       id="path1364"
       d="M 781.83208,522.04136 C 781.12401,531.76279 780.21894,541.42746 780.12086,551.19238 C 780.85761,559.12166 778.38626,566.68698 777.37552,574.44080 C 776.25864,585.69151 777.03300,587.90942 788.23052,588.22756 C 803.29118,588.26188 818.35360,588.26810 833.41427,588.16194 C 842.17129,588.67654 850.75233,587.28566 859.44930,586.73871 C 863.38861,586.94219 867.17357,586.24798 871.01479,585.52014 L 854.67842,597.80179 C 850.82352,598.31730 847.01543,598.89994 843.09605,598.74934 C 834.44041,599.48289 825.86119,600.64753 817.13734,599.98826 C 802.05662,599.88727 786.97643,600.01942 771.89575,600.04404 C 759.78999,599.59533 758.07996,595.22399 759.16208,583.55724 C 759.89661,575.75795 762.57178,568.26356 762.11476,560.33884 C 762.31645,550.68706 763.18100,541.06747 763.36412,531.45126 L 781.83208,522.04136 z " />
    <path
       style="fill:#000000;fill-opacity:1.0000000;fill-rule:nonzero;stroke:none;stroke-width:1.0000000px;stroke-linecap:butt;stroke-linejoin:miter;stroke-opacity:1.0000000"
       id="path1366"
       d="M 910.62269,458.32804 C 913.50108,469.47960 914.71109,481.02937 917.47749,492.25187 C 920.47742,503.12471 920.54827,514.38204 922.03639,525.46970 C 922.90945,532.70281 922.79601,540.01821 922.58806,547.28226 C 920.37348,555.25964 912.97801,559.85129 907.67603,565.86306 C 897.12809,577.79468 883.39634,584.75078 869.69151,592.57985 C 875.09725,589.48234 880.49643,586.37337 885.90873,583.28732 C 892.54507,579.50333 872.74320,591.05121 865.98848,594.61962 C 860.39275,597.57575 887.89378,581.93445 882.47164,585.19809 C 822.20334,621.47417 916.24292,565.60451 858.06079,599.19925 L 874.03901,586.34850 C 868.51851,589.56453 863.00594,592.79421 857.47752,595.99661 C 850.01990,600.31653 887.29266,578.69044 879.84162,583.02171 C 874.35635,586.21028 857.77233,595.54792 863.36369,592.54926 C 868.66776,589.70468 904.67488,568.65133 865.65236,591.33623 C 865.25110,591.56950 866.46355,590.88493 866.86914,590.65928 C 873.10998,587.04681 879.35082,583.43435 885.59166,579.82189 C 851.70461,599.49447 882.29699,582.34664 888.97281,573.76010 C 894.04653,567.85556 900.68477,563.19859 904.29405,556.32780 C 904.58426,549.22040 904.75659,542.02950 904.04551,534.91453 C 902.70298,523.84943 902.61047,512.65546 899.80360,501.78791 C 897.20761,490.96304 895.85074,479.88050 892.96517,469.14858 L 910.62269,458.32804 z " />
    <path
       style="fill:#000000;fill-opacity:1.0000000;fill-rule:nonzero;stroke:none;stroke-width:1.0000000px;stroke-linecap:butt;stroke-linejoin:miter;stroke-opacity:1.0000000"
       id="path1368"
       d="M 785.66240,365.95571 C 791.52480,365.95292 797.23664,367.08571 803.08736,367.49208 C 805.08633,367.56310 807.08677,367.53765 809.08634,367.56044 L 792.56775,379.54692 C 790.55191,379.51251 788.53460,379.52170 786.52070,379.40870 C 780.63449,378.92271 774.82678,377.65911 768.89385,378.13877 L 785.66240,365.95571 z " />
    <path
       style="fill:#000000;fill-opacity:1.0000000;fill-rule:nonzero;stroke:none;stroke-width:1.0000000px;stroke-linecap:butt;stroke-linejoin:miter;stroke-opacity:1.0000000"
       id="path1370"
       d="M 828.33798,376.52289 C 828.20793,378.89587 828.23213,381.27417 828.20715,383.64975 L 810.00087,392.92631 C 809.97608,390.59522 810.00213,388.26112 809.87003,385.93278 L 828.33798,376.52289 z " />
    <path
       style="fill:#000000;fill-opacity:1.0000000;fill-rule:nonzero;stroke:none;stroke-width:1.0000000px;stroke-linecap:butt;stroke-linejoin:miter;stroke-opacity:1.0000000"
       id="path1372"
       d="M 826.83779,409.52708 C 826.82897,409.67396 826.82014,409.82084 826.81131,409.96773 L 808.39632,419.35063 C 808.38750,419.21274 808.37867,419.07486 808.36984,418.93697 L 826.83779,409.52708 z " />
    <path
       style="fill:#000000;fill-opacity:1.0000000;fill-rule:nonzero;stroke:none;stroke-width:1.0000000px;stroke-linecap:butt;stroke-linejoin:miter;stroke-opacity:1.0000000"
       id="path1374"
       d="M 826.83779,406.52670 C 826.80122,412.37408 827.81237,418.17416 828.12515,424.02874 L 809.98373,433.34123 C 809.75863,427.49279 809.06030,421.73039 808.36984,415.93659 L 826.83779,406.52670 z " />
    <path
       style="fill:#000000;fill-opacity:1.0000000;fill-rule:nonzero;stroke:none;stroke-width:1.0000000px;stroke-linecap:butt;stroke-linejoin:miter;stroke-opacity:1.0000000"
       id="path1376"
       d="M 826.83779,445.53165 C 826.78429,446.21359 826.78617,446.89821 826.76036,447.58128 L 808.44727,456.91226 C 808.42147,456.25552 808.42450,455.59705 808.36984,454.94154 L 826.83779,445.53165 z " />
    <path
       style="fill:#000000;fill-opacity:1.0000000;fill-rule:nonzero;stroke:none;stroke-width:1.0000000px;stroke-linecap:butt;stroke-linejoin:miter;stroke-opacity:1.0000000"
       id="path1378"
       d="M 835.83894,469.53470 C 836.55400,473.32909 836.92224,477.18618 837.13382,481.06637 L 818.97735,490.39016 C 818.75441,486.52394 818.71376,482.61542 817.37098,478.94459 L 835.83894,469.53470 z " />
    <path
       style="fill:#000000;fill-opacity:1.0000000;fill-rule:nonzero;stroke:none;stroke-width:1.0000000px;stroke-linecap:butt;stroke-linejoin:miter;stroke-opacity:1.0000000"
       id="path1380"
       d="M 808.36984,451.58226 C 807.82589,440.08994 826.15738,430.38772 827.99977,444.99261 C 828.03493,445.00542 828.13155,448.01819 828.13182,448.02445 L 809.97706,457.34693 C 809.94160,456.36210 809.93781,455.37614 809.87068,454.39245 C 808.63234,444.07064 827.47508,428.23694 826.83779,442.17237 L 808.36984,451.58226 z " />
    <path
       style="fill:#000000;fill-opacity:1.0000000;fill-rule:nonzero;stroke:none;stroke-width:1.0000000px;stroke-linecap:butt;stroke-linejoin:miter;stroke-opacity:1.0000000"
       id="path1382"
       d="M 825.33760,259.50803 C 825.63149,264.78182 824.25772,269.64783 822.46382,274.52229 C 819.86582,279.17789 815.15901,282.09168 810.96877,285.26101 C 740.08544,316.22733 853.54076,277.14298 776.58141,303.09214 C 770.67745,304.54190 764.56798,305.35425 758.48921,305.94677 C 740.04635,307.85361 744.55785,308.20192 763.43151,297.39067 C 769.82855,299.56669 775.54326,303.23479 781.29203,306.73002 C 788.99840,311.09401 797.07642,314.64540 805.32848,317.83193 C 811.25408,320.41359 816.90592,323.47246 822.56707,326.54180 C 837.51353,337.07723 839.95915,332.30238 818.23304,344.85771 C 819.27269,339.07706 819.90236,332.97905 821.18782,327.11680 C 823.20737,320.04709 826.52778,313.49772 829.97071,307.04145 C 836.85843,295.71398 850.19080,291.06864 861.29929,284.77816 C 869.99859,281.94175 887.72396,271.65423 855.29649,290.04976 L 874.34508,282.37746 C 864.42304,288.21343 855.80652,293.53259 845.34507,297.46248 C 868.63479,283.80374 856.99612,288.23774 848.67608,298.74206 C 845.04107,304.97392 841.72529,311.47340 839.64874,318.43273 C 838.28176,324.37412 836.95321,330.35673 837.10049,336.52344 C 815.29859,349.92199 821.00689,347.72056 805.37723,337.66499 C 799.79883,334.71575 794.26357,331.69935 788.49184,329.13141 C 780.16832,325.82432 771.93665,322.28313 764.16043,317.80695 C 758.44372,314.31472 752.70356,310.87256 746.32082,308.71173 C 748.51454,306.70961 761.68109,291.63637 774.93383,293.81837 C 780.89240,292.93744 787.02448,292.51245 792.70739,290.46419 C 795.56922,289.46687 803.83840,285.74815 801.22354,287.28020 C 795.81285,290.45034 779.45259,299.73761 784.94010,296.70238 C 791.98530,292.80558 812.86373,280.66000 805.92259,284.73930 C 777.70400,301.32334 785.96068,296.57660 791.92097,292.76609 C 796.09769,289.78072 800.39367,286.77506 803.81356,283.02560 C 805.70896,278.47009 807.46315,273.98815 806.86965,268.91792 L 825.33760,259.50803 z " />
    <path
       style="fill:#000000;fill-opacity:1.0000000;fill-rule:nonzero;stroke:none;stroke-width:1.0000000px;stroke-linecap:butt;stroke-linejoin:miter;stroke-opacity:1.0000000"
       id="path1384"
       d="M 811.16564,244.44028 C 817.70607,247.58900 823.42612,252.21471 829.51711,256.17098 C 837.52975,262.05024 846.11843,267.04705 854.32943,272.62135 C 863.29547,280.27174 873.16110,286.45571 883.89701,291.26236 C 890.67022,295.26098 897.66515,298.80494 904.63728,302.42847 C 910.54879,305.12518 915.80445,308.89843 921.70885,311.65120 C 927.85621,314.24073 933.25271,318.15741 939.31398,320.93140 C 941.67339,321.72463 943.93376,322.80259 946.20265,323.80260 L 929.11548,335.05987 C 926.87427,334.09022 924.64878,333.07803 922.36414,332.21185 C 916.31911,329.32207 910.80858,325.51221 904.64020,322.86879 C 898.78133,320.01680 893.42454,316.37221 887.54170,313.58445 C 880.53368,310.09895 873.77413,306.18501 866.86585,302.51228 C 856.21620,297.34972 846.55496,290.70406 837.18420,283.49416 C 828.94826,278.02186 820.50272,272.86347 812.45615,267.10325 C 806.71359,263.32184 800.94720,258.36114 794.39708,256.62334 L 811.16564,244.44028 z " />
    <g
       id="g1390"
       transform="translate(-69.00876,5.735637)">
      <path
         d="M 653.32806,346.77958 C 651.97434,343.73209 647.17774,341.26575 643.44312,339.57827 C 636.96998,338.72221 630.87184,339.00941 624.79440,341.10006 C 652.73791,323.90549 634.83484,334.73177 626.80169,344.35325 C 622.66302,351.23231 621.10971,358.51643 620.64438,366.40575 C 621.50872,375.31787 627.98789,379.87695 634.81744,384.59646 C 641.18495,389.03375 648.04166,390.04039 655.55688,390.29153 C 667.03452,391.25397 694.17776,374.27229 661.41704,392.94090 C 667.63364,389.46387 671.13397,384.36492 673.86973,378.07067 C 675.38842,370.78651 672.26953,364.47987 669.24458,358.04647 C 666.95031,352.13113 663.04833,348.52078 657.96756,345.16374 C 655.69104,343.30418 652.86544,342.62853 650.12588,341.74810 L 667.10105,330.29034 C 669.90772,331.29621 672.76394,332.07217 675.12411,334.01008 C 680.51218,337.63766 684.50105,341.81004 686.97323,348.01077 C 690.16865,354.79886 693.44167,361.48560 692.29299,369.19563 C 690.00710,376.05642 686.76361,381.58924 680.37367,385.54466 C 667.45433,393.07395 654.62952,402.84123 639.02379,402.25923 C 631.24740,401.88063 624.18104,400.13764 617.68912,395.56509 C 610.29512,390.37341 603.75517,385.10854 602.50960,375.58172 C 602.82644,367.47077 604.04938,359.89187 608.15592,352.73493 C 615.96897,340.98864 628.30523,334.94173 640.89797,328.42603 C 647.26364,326.92421 653.79214,326.78214 660.28594,327.95363 C 664.93963,330.20624 669.03838,332.74734 671.79602,337.36969 L 653.32806,346.77958 z "
         id="path1386"
         style="fill:#000000;fill-opacity:1.0000000;fill-rule:nonzero;stroke:none;stroke-width:1.0000000px;stroke-linecap:butt;stroke-linejoin:miter;stroke-opacity:1.0000000" />
      <path
         d="M 674.72473,388.50476 C 680.73265,398.10525 689.33942,405.63524 695.73728,414.96942 C 702.21071,425.47687 710.11425,434.99848 716.99973,445.22394 C 719.15931,448.30717 721.50059,451.26320 723.65879,454.34289 L 706.13081,464.92650 C 703.86321,461.81347 701.50314,458.75813 699.37614,455.54619 C 692.83285,445.08002 685.12969,435.46357 678.32132,425.18774 C 671.88837,415.73364 663.57726,407.87974 656.75901,398.73415 L 674.72473,388.50476 z "
         id="path1388"
         style="fill:#000000;fill-opacity:1.0000000;fill-rule:nonzero;stroke:none;stroke-width:1.0000000px;stroke-linecap:butt;stroke-linejoin:miter;stroke-opacity:1.0000000" />
    </g>
    <g
       id="g1394"
       transform="translate(-207.0263,5.735637)">
      <path
         d="M 653.32806,346.77958 C 651.97434,343.73209 647.17774,341.26575 643.44312,339.57827 C 636.96998,338.72221 630.87184,339.00941 624.79440,341.10006 C 652.73791,323.90549 634.83484,334.73177 626.80169,344.35325 C 622.66302,351.23231 621.10971,358.51643 620.64438,366.40575 C 621.50872,375.31787 627.98789,379.87695 634.81744,384.59646 C 641.18495,389.03375 648.04166,390.04039 655.55688,390.29153 C 667.03452,391.25397 694.17776,374.27229 661.41704,392.94090 C 667.63364,389.46387 671.13397,384.36492 673.86973,378.07067 C 675.38842,370.78651 672.26953,364.47987 669.24458,358.04647 C 666.95031,352.13113 663.04833,348.52078 657.96756,345.16374 C 655.69104,343.30418 652.86544,342.62853 650.12588,341.74810 L 667.10105,330.29034 C 669.90772,331.29621 672.76394,332.07217 675.12411,334.01008 C 680.51218,337.63766 684.50105,341.81004 686.97323,348.01077 C 690.16865,354.79886 693.44167,361.48560 692.29299,369.19563 C 690.00710,376.05642 686.76361,381.58924 680.37367,385.54466 C 667.45433,393.07395 654.62952,402.84123 639.02379,402.25923 C 631.24740,401.88063 624.18104,400.13764 617.68912,395.56509 C 610.29512,390.37341 603.75517,385.10854 602.50960,375.58172 C 602.82644,367.47077 604.04938,359.89187 608.15592,352.73493 C 615.96897,340.98864 628.30523,334.94173 640.89797,328.42603 C 647.26364,326.92421 653.79214,326.78214 660.28594,327.95363 C 664.93963,330.20624 669.03838,332.74734 671.79602,337.36969 L 653.32806,346.77958 z "
         id="path1396"
         style="fill:#000000;fill-opacity:1.0000000;fill-rule:nonzero;stroke:none;stroke-width:1.0000000px;stroke-linecap:butt;stroke-linejoin:miter;stroke-opacity:1.0000000" />
      <path
         d="M 674.72473,388.50476 C 680.73265,398.10525 689.33942,405.63524 695.73728,414.96942 C 702.21071,425.47687 710.11425,434.99848 716.99973,445.22394 C 719.15931,448.30717 721.50059,451.26320 723.65879,454.34289 L 706.13081,464.92650 C 703.86321,461.81347 701.50314,458.75813 699.37614,455.54619 C 692.83285,445.08002 685.12969,435.46357 678.32132,425.18774 C 671.88837,415.73364 663.57726,407.87974 656.75901,398.73415 L 674.72473,388.50476 z "
         id="path1398"
         style="fill:#000000;fill-opacity:1.0000000;fill-rule:nonzero;stroke:none;stroke-width:1.0000000px;stroke-linecap:butt;stroke-linejoin:miter;stroke-opacity:1.0000000" />
    </g>
    <g
       id="g1400"
       transform="translate(-345.0438,5.735637)">
      <path
         d="M 653.32806,346.77958 C 651.97434,343.73209 647.17774,341.26575 643.44312,339.57827 C 636.96998,338.72221 630.87184,339.00941 624.79440,341.10006 C 652.73791,323.90549 634.83484,334.73177 626.80169,344.35325 C 622.66302,351.23231 621.10971,358.51643 620.64438,366.40575 C 621.50872,375.31787 627.98789,379.87695 634.81744,384.59646 C 641.18495,389.03375 648.04166,390.04039 655.55688,390.29153 C 667.03452,391.25397 694.17776,374.27229 661.41704,392.94090 C 667.63364,389.46387 671.13397,384.36492 673.86973,378.07067 C 675.38842,370.78651 672.26953,364.47987 669.24458,358.04647 C 666.95031,352.13113 663.04833,348.52078 657.96756,345.16374 C 655.69104,343.30418 652.86544,342.62853 650.12588,341.74810 L 667.10105,330.29034 C 669.90772,331.29621 672.76394,332.07217 675.12411,334.01008 C 680.51218,337.63766 684.50105,341.81004 686.97323,348.01077 C 690.16865,354.79886 693.44167,361.48560 692.29299,369.19563 C 690.00710,376.05642 686.76361,381.58924 680.37367,385.54466 C 667.45433,393.07395 654.62952,402.84123 639.02379,402.25923 C 631.24740,401.88063 624.18104,400.13764 617.68912,395.56509 C 610.29512,390.37341 603.75517,385.10854 602.50960,375.58172 C 602.82644,367.47077 604.04938,359.89187 608.15592,352.73493 C 615.96897,340.98864 628.30523,334.94173 640.89797,328.42603 C 647.26364,326.92421 653.79214,326.78214 660.28594,327.95363 C 664.93963,330.20624 669.03838,332.74734 671.79602,337.36969 L 653.32806,346.77958 z "
         id="path1402"
         style="fill:#000000;fill-opacity:1.0000000;fill-rule:nonzero;stroke:none;stroke-width:1.0000000px;stroke-linecap:butt;stroke-linejoin:miter;stroke-opacity:1.0000000" />
      <path
         d="M 674.72473,388.50476 C 680.73265,398.10525 689.33942,405.63524 695.73728,414.96942 C 702.21071,425.47687 710.11425,434.99848 716.99973,445.22394 C 719.15931,448.30717 721.50059,451.26320 723.65879,454.34289 L 706.13081,464.92650 C 703.86321,461.81347 701.50314,458.75813 699.37614,455.54619 C 692.83285,445.08002 685.12969,435.46357 678.32132,425.18774 C 671.88837,415.73364 663.57726,407.87974 656.75901,398.73415 L 674.72473,388.50476 z "
         id="path1404"
         style="fill:#000000;fill-opacity:1.0000000;fill-rule:nonzero;stroke:none;stroke-width:1.0000000px;stroke-linecap:butt;stroke-linejoin:miter;stroke-opacity:1.0000000" />
    </g>
    <text
       xml:space="preserve"
       style="font-size:12.000000px;font-style:normal;font-weight:normal;line-height:125.00000%;fill:#000000;fill-opacity:1.0000000;stroke:none;stroke-width:1.0000000px;stroke-linecap:butt;stroke-linejoin:miter;stroke-opacity:1.0000000;font-family:Bitstream Vera Sans"
       x="397.55048"
       y="517.56573"
       id="text1406"
       sodipodi:linespacing="125.00000%"><tspan
         sodipodi:role="line"
         id="tspan1408"
         x="397.55048"
         y="517.56573"
         style="font-size:24.000000px;font-style:normal;font-variant:normal;font-weight:normal;font-stretch:normal;text-align:start;line-height:125.00000%;writing-mode:lr-tb;text-anchor:start;font-family:Nimbus Sans L">throughanalyzers</tspan></text>
    <text
       xml:space="preserve"
       style="font-size:12.000000px;font-style:normal;font-weight:normal;line-height:125.00000%;fill:#000000;fill-opacity:1.0000000;stroke:none;stroke-width:1.0000000px;stroke-linecap:butt;stroke-linejoin:miter;stroke-opacity:1.0000000;font-family:Bitstream Vera Sans"
       x="851.56781"
       y="377.32721"
       id="text1410"
       sodipodi:linespacing="125.00000%"><tspan
         sodipodi:role="line"
         id="tspan1412"
         x="851.56781"
         y="377.32721"
         style="font-size:24.000000px;font-style:normal;font-variant:normal;font-weight:normal;font-stretch:normal;text-align:start;line-height:125.00000%;writing-mode:lr-tb;text-anchor:start;font-family:Nimbus Sans L">endanalyzer</tspan></text>
    <text
       xml:space="preserve"
       style="font-size:12.000000px;font-style:normal;font-weight:normal;line-height:125.00000%;fill:#000000;fill-opacity:1.0000000;stroke:none;stroke-width:1.0000000px;stroke-linecap:butt;stroke-linejoin:miter;stroke-opacity:1.0000000;font-family:Bitstream Vera Sans"
       x="42.965137"
       y="473.33945"
       id="text1432"
       sodipodi:linespacing="125.00000%"><tspan
         sodipodi:role="line"
         id="tspan1434"
         x="42.965137"
         y="473.33945"
         style="font-size:24.000000px;font-style:normal;font-variant:normal;font-weight:normal;font-stretch:normal;text-align:start;line-height:125.00000%;writing-mode:lr-tb;text-anchor:start;font-family:Nimbus Sans L">document</tspan></text>
    <text
       xml:space="preserve"
       style="font-size:12.000000px;font-style:normal;font-weight:normal;line-height:125.00000%;fill:#000000;fill-opacity:1.0000000;stroke:none;stroke-width:1.0000000px;stroke-linecap:butt;stroke-linejoin:miter;stroke-opacity:1.0000000;font-family:Bitstream Vera Sans"
       x="780.67706"
       y="636.40405"
       id="text1436"
       sodipodi:linespacing="125.00000%"><tspan
         sodipodi:role="line"
         id="tspan1438"
         x="780.67706"
         y="636.40405"
         style="font-size:24.000000px;font-style:normal;font-variant:normal;font-weight:normal;font-stretch:normal;text-align:start;line-height:125.00000%;writing-mode:lr-tb;text-anchor:start;font-family:Nimbus Sans L">search index</tspan></text>
    <path
       style="fill:#000000;fill-opacity:1.0000000;fill-rule:nonzero;stroke:none;stroke-width:1.0000000px;stroke-linecap:butt;stroke-linejoin:miter;stroke-opacity:1.0000000"
       id="path1440"
       d="M 313.61742,447.16809 C 313.86014,450.35683 313.33300,453.43291 312.93052,456.56123 L 306.78962,459.53508 C 307.23326,456.45504 307.82515,453.45557 307.46144,450.30472 L 313.61742,447.16809 z " />
    <path
       style="fill:#000000;fill-opacity:1.0000000;fill-rule:nonzero;stroke:none;stroke-width:1.0000000px;stroke-linecap:butt;stroke-linejoin:miter;stroke-opacity:1.0000000"
       id="path1442"
       d="M 307.61666,484.67285 C 307.64326,488.07243 308.51710,491.42711 309.05170,494.79230 L 303.04735,498.00445 C 302.49633,494.60761 301.63337,491.23295 301.46068,487.80948 L 307.61666,484.67285 z " />
    <path
       style="fill:#000000;fill-opacity:1.0000000;fill-rule:nonzero;stroke:none;stroke-width:1.0000000px;stroke-linecap:butt;stroke-linejoin:miter;stroke-opacity:1.0000000"
       id="path1444"
       d="M 315.11761,523.67780 C 315.07401,526.03831 315.08231,528.39942 315.07400,530.76022 L 309.00524,533.85241 C 308.99696,531.50642 309.00546,529.16012 308.96163,526.81444 L 315.11761,523.67780 z " />
    <path
       style="fill:#000000;fill-opacity:1.0000000;fill-rule:nonzero;stroke:none;stroke-width:1.0000000px;stroke-linecap:butt;stroke-linejoin:miter;stroke-opacity:1.0000000"
       id="path1446"
       d="M 312.11723,562.68276 C 311.98871,563.21192 312.35284,563.68027 312.46753,564.16582 L 306.46527,567.50236 C 306.29860,566.94586 305.88317,566.42596 305.96125,565.81939 L 312.11723,562.68276 z " />
    <path
       style="fill:#000000;fill-opacity:1.0000000;fill-rule:nonzero;stroke:none;stroke-width:1.0000000px;stroke-linecap:butt;stroke-linejoin:miter;stroke-opacity:1.0000000"
       id="path1448"
       d="M 327.01535,575.54283 C 330.94483,575.45731 334.83664,575.67611 338.74532,576.05225 L 333.27105,579.94873 C 329.32308,579.63248 325.38871,579.45064 321.42584,579.60385 L 327.01535,575.54283 z " />
    <path
       style="fill:#000000;fill-opacity:1.0000000;fill-rule:nonzero;stroke:none;stroke-width:1.0000000px;stroke-linecap:butt;stroke-linejoin:miter;stroke-opacity:1.0000000"
       id="path1450"
       d="M 373.52126,577.04302 C 380.68442,577.26134 387.80298,577.07825 394.93387,576.39681 L 389.54337,580.39152 C 382.34638,581.04499 375.15704,581.16139 367.93174,581.10404 L 373.52126,577.04302 z " />
    <path
       style="fill:#000000;fill-opacity:1.0000000;fill-rule:nonzero;stroke:none;stroke-width:1.0000000px;stroke-linecap:butt;stroke-linejoin:miter;stroke-opacity:1.0000000"
       id="path1452"
       d="M 432.20233,575.54705 C 442.68359,577.30725 453.38229,577.09950 463.98905,577.11193 C 464.82603,577.11076 465.66301,577.10959 466.50000,577.10842 L 461.06094,581.05990 C 460.22737,581.05828 459.39379,581.05667 458.56022,581.05505 C 447.89792,581.01750 437.19117,581.08948 426.62443,579.59963 L 432.20233,575.54705 z " />
    <path
       style="fill:#000000;fill-opacity:1.0000000;fill-rule:nonzero;stroke:none;stroke-width:1.0000000px;stroke-linecap:butt;stroke-linejoin:miter;stroke-opacity:1.0000000"
       id="path1454"
       d="M 508.53840,577.04302 C 515.91332,577.31159 523.20469,577.04911 530.52153,576.15205 L 525.09539,580.18771 C 517.72503,581.07170 510.37193,581.21968 502.94888,581.10404 L 508.53840,577.04302 z " />
    <path
       style="fill:#000000;fill-opacity:1.0000000;fill-rule:nonzero;stroke:none;stroke-width:1.0000000px;stroke-linecap:butt;stroke-linejoin:miter;stroke-opacity:1.0000000"
       id="path1456"
       d="M 571.54640,574.04264 C 581.70819,574.46159 591.79885,575.67407 601.98919,575.37215 L 596.55714,579.37583 C 586.31835,579.51201 576.17399,578.28287 565.95689,578.10366 L 571.54640,574.04264 z " />
    <path
       style="fill:#000000;fill-opacity:1.0000000;fill-rule:nonzero;stroke:none;stroke-width:1.0000000px;stroke-linecap:butt;stroke-linejoin:miter;stroke-opacity:1.0000000"
       id="path1458"
       d="M 648.05612,575.54283 C 656.88285,575.24258 665.63472,576.27435 674.42722,576.83782 C 675.76641,577.15601 677.09612,576.80742 678.43057,576.79222 L 672.97631,580.80185 C 672.50665,580.79761 669.34888,581.02561 668.95093,580.76548 C 660.12592,580.14080 651.32904,579.17366 642.46660,579.60385 L 648.05612,575.54283 z " />
    <path
       style="fill:#000000;fill-opacity:1.0000000;fill-rule:nonzero;stroke:none;stroke-width:1.0000000px;stroke-linecap:butt;stroke-linejoin:miter;stroke-opacity:1.0000000"
       id="path1460"
       d="M 714.23814,574.04686 C 722.45212,574.11517 730.66665,574.08717 738.88085,574.07731 C 740.44708,574.07554 742.01331,574.07543 743.57955,574.07448 L 738.07770,578.07181 C 736.51406,578.07087 734.95043,578.07076 733.38679,578.06898 C 725.14465,578.05906 716.90217,578.03150 708.66024,578.09944 L 714.23814,574.04686 z " />
    <path
       style="fill:#000000;fill-opacity:1.0000000;fill-rule:nonzero;stroke:none;stroke-width:1.0000000px;stroke-linecap:butt;stroke-linejoin:miter;stroke-opacity:1.0000000"
       id="path1462"
       d="M 447.13438,420.16466 C 447.30711,423.07445 446.67443,425.89374 446.20815,428.74557 L 440.09732,431.74202 C 440.57493,428.93943 441.21586,426.16051 440.97839,423.30129 L 447.13438,420.16466 z " />
    <path
       style="fill:#000000;fill-opacity:1.0000000;fill-rule:nonzero;stroke:none;stroke-width:1.0000000px;stroke-linecap:butt;stroke-linejoin:miter;stroke-opacity:1.0000000"
       id="path1464"
       d="M 445.63419,457.66942 C 445.59436,458.48324 446.04016,459.23367 446.24192,460.01108 L 440.22920,463.30032 C 439.97962,462.47138 439.54147,461.66255 439.47820,460.80605 L 445.63419,457.66942 z " />
    <path
       style="fill:#000000;fill-opacity:1.0000000;fill-rule:nonzero;stroke:none;stroke-width:1.0000000px;stroke-linecap:butt;stroke-linejoin:miter;stroke-opacity:1.0000000"
       id="path1466"
       d="M 448.63457,469.67095 C 449.19972,471.54060 449.39721,473.56339 449.80658,475.48888 L 443.76319,478.65342 C 443.34462,476.70768 443.21330,474.65749 442.47858,472.80758 L 448.63457,469.67095 z " />
    <path
       style="fill:#000000;fill-opacity:1.0000000;fill-rule:nonzero;stroke:none;stroke-width:1.0000000px;stroke-linecap:butt;stroke-linejoin:miter;stroke-opacity:1.0000000"
       id="path1468"
       d="M 453.03135,551.53978 C 454.62352,552.88245 454.79162,554.93900 455.55528,556.70322 L 449.53961,559.93604 C 448.90359,558.53386 448.89303,556.49000 447.44184,555.60080 L 453.03135,551.53978 z " />
    <path
       style="fill:#000000;fill-opacity:1.0000000;fill-rule:nonzero;stroke:none;stroke-width:1.0000000px;stroke-linecap:butt;stroke-linejoin:miter;stroke-opacity:1.0000000"
       id="path1470"
       d="M 457.53193,575.54283 C 458.48606,575.97277 459.35225,576.53363 460.27612,577.03649 L 454.53855,580.77180 C 453.68139,580.38619 452.92277,579.67716 451.94241,579.60385 L 457.53193,575.54283 z " />
    <path
       style="fill:#000000;fill-opacity:1.0000000;fill-rule:nonzero;stroke:none;stroke-width:1.0000000px;stroke-linecap:butt;stroke-linejoin:miter;stroke-opacity:1.0000000"
       id="path1472"
       d="M 585.15190,421.66485 C 587.02739,425.37292 586.20156,429.27246 585.71961,433.22846 L 579.61592,436.23296 C 580.14283,432.30154 581.01325,428.43076 578.99592,424.80148 L 585.15190,421.66485 z " />
    <path
       style="fill:#000000;fill-opacity:1.0000000;fill-rule:nonzero;stroke:none;stroke-width:1.0000000px;stroke-linecap:butt;stroke-linejoin:miter;stroke-opacity:1.0000000"
       id="path1474"
       d="M 588.04850,460.02816 C 588.67762,460.36476 588.68476,461.15605 588.98559,461.68932 L 582.97030,464.99995 C 582.90757,464.88823 582.80597,464.01090 582.45898,464.08918 L 588.04850,460.02816 z " />
    <path
       style="fill:#000000;fill-opacity:1.0000000;fill-rule:nonzero;stroke:none;stroke-width:1.0000000px;stroke-linecap:butt;stroke-linejoin:miter;stroke-opacity:1.0000000"
       id="path1476"
       d="M 589.65247,495.17418 C 589.61422,497.06657 589.62106,498.95950 589.61142,500.85215 L 583.53754,503.94694 C 583.52793,502.06824 583.53496,500.18925 583.49649,498.31082 L 589.65247,495.17418 z " />
    <path
       style="fill:#000000;fill-opacity:1.0000000;fill-rule:nonzero;stroke:none;stroke-width:1.0000000px;stroke-linecap:butt;stroke-linejoin:miter;stroke-opacity:1.0000000"
       id="path1478"
       d="M 589.65247,526.67819 C 589.61422,528.57057 589.62106,530.46350 589.61142,532.35615 L 583.53754,535.45094 C 583.52793,533.57224 583.53496,531.69325 583.49649,529.81482 L 589.65247,526.67819 z " />
    <path
       style="fill:#000000;fill-opacity:1.0000000;fill-rule:nonzero;stroke:none;stroke-width:1.0000000px;stroke-linecap:butt;stroke-linejoin:miter;stroke-opacity:1.0000000"
       id="path1480"
       d="M 591.15266,556.68199 C 591.14373,556.96393 591.13851,557.56809 591.13485,557.79759 L 585.01450,560.91607 C 584.99511,559.72168 585.01555,560.70342 584.99668,559.81863 L 591.15266,556.68199 z " />
    <path
       style="fill:#000000;fill-opacity:1.0000000;fill-rule:nonzero;stroke:none;stroke-width:1.0000000px;stroke-linecap:butt;stroke-linejoin:miter;stroke-opacity:1.0000000"
       id="path1482"
       d="M 594.04926,568.04187 C 594.33898,568.30398 594.59228,568.60157 594.86379,568.88142 L 589.00394,572.47656 C 588.91625,572.41635 588.69289,572.01682 588.45974,572.10290 L 594.04926,568.04187 z " />
  </g>
</svg>
